<?xml version="1.0" encoding="UTF-8"?>
<svg viewBox="0 0 12 11" xmlns="http://www.w3.org/2000/svg">
<defs>
<style>.cls-1{fill:none;stroke:#2379ea}</style>
</defs>
<g transform="translate(-743 -557.59)" data-name="Group 30147">
<path class="cls-1" transform="translate(0 62.391)" d="M743.5 501.7h11v-3.5a.472.472 0 0 0-.5-.5h-10a.472.472 0 0 0-.5.5zm3-4h5v-1.5a.472.472 0 0 0-.5-.5h-4a.472.472 0 0 0-.5.5zm-3 4v3.5a.472.472 0 0 0 .5.5h10a.472.472 0 0 0 .5-.5v-3.5z" data-name="Path 15597"/>
</g>
</svg>
